<svg width="60" height="16" viewBox="0 0 60 16" fill="none" xmlns="http://www.w3.org/2000/svg">
<path d="M6.61037 0H0V16L6.61037 0Z" fill="#E73D1C"/>
<path d="M11.2613 0H17.8631V16L11.2613 0Z" fill="#E73D1C"/>
<path d="M13.1432 16L8.93584 5.89703L6.04622 12.7834H9.12532L10.3828 16H13.1432Z" fill="#E73D1C"/>
<path fill-rule="evenodd" clip-rule="evenodd" d="M35.1213 12.655C35.9266 12.655 36.7836 12.5068 37.6535 12.1276C37.7224 12.1014 37.7353 12.0709 37.7353 12.0055C37.7095 11.7615 37.6793 11.4084 37.6793 11.1382V2.94425C37.6793 2.89195 37.6793 2.8658 37.6148 2.8658H36.1549C36.0989 2.8658 36.073 2.89195 36.073 2.96169V5.73804C35.8448 5.71189 35.6855 5.69882 35.496 5.69882C33.1404 5.69882 31.6934 7.27223 31.6934 9.23791C31.6934 11.5174 33.1791 12.655 35.1213 12.655ZM36.073 11.1382C35.8319 11.2167 35.5649 11.2472 35.2936 11.2472C34.2256 11.2472 33.3514 10.637 33.3514 9.1551C33.3514 7.84319 34.2514 7.06738 35.4443 7.06738C35.6855 7.06738 35.8965 7.09353 36.073 7.16327V11.1382ZM28.6474 10.175L29.4269 12.437C29.4527 12.4937 29.4915 12.5198 29.5604 12.5198H31.059C31.1408 12.5198 31.1537 12.4806 31.1408 12.3978L28.0445 3.6939C28.0316 3.62416 28.0187 3.61109 27.9497 3.61109H26.0894C26.0377 3.61109 26.0076 3.65031 26.0076 3.70697C25.9817 4.16462 25.943 4.30409 25.887 4.4392L23.1265 12.3847C23.1136 12.4806 23.1438 12.5198 23.2213 12.5198H24.5606C24.6424 12.5198 24.6812 12.4937 24.7113 12.4109L25.4477 10.175H28.6474ZM25.8741 8.69744C25.9279 8.53276 25.9841 8.36192 26.0414 8.18732C26.4153 7.04954 26.8415 5.75253 27.0282 4.96658H27.0411C27.2292 5.63606 27.597 6.76862 27.8972 7.69339C28.0231 8.08107 28.1371 8.43223 28.2211 8.69744H25.8741ZM39.137 9.1856C39.137 7.25914 40.3816 5.69881 42.3927 5.69881C44.4555 5.69881 45.5794 7.2853 45.5794 9.14201C45.5794 11.2472 44.253 12.655 42.3625 12.655C40.1275 12.655 39.137 10.9072 39.137 9.1856ZM43.9301 9.1856C43.9301 8.05675 43.4477 7.06737 42.3109 7.06737C41.4108 7.06737 40.7691 7.86933 40.7691 9.15509C40.7691 10.406 41.372 11.2733 42.3927 11.2733C43.2195 11.2733 43.9301 10.5803 43.9301 9.1856ZM47.0887 2.8658C47.0328 2.8658 46.994 2.89195 46.994 2.96169V12.2365C46.994 12.2758 47.0328 12.3455 47.0887 12.3586C47.7304 12.5591 48.4022 12.655 49.0955 12.655C51.0808 12.655 53.0101 11.4084 53.0101 8.89794C53.0101 7.08046 51.7784 5.69882 49.8492 5.69882C49.4056 5.69882 48.9922 5.76855 48.6304 5.89059L48.6132 2.97476C48.6132 2.87887 48.5874 2.8658 48.4926 2.8658H47.0887ZM51.3607 9.06357C51.3607 10.5672 50.3444 11.2733 49.2463 11.2733C49.018 11.2733 48.8156 11.2602 48.6304 11.2036V7.24608C48.8414 7.16327 49.0955 7.09353 49.5649 7.09353C50.6243 7.09353 51.3607 7.77345 51.3607 9.06357ZM59.8364 9.49505C59.6512 9.53863 59.1129 9.55171 58.4583 9.55171H55.7367C55.7754 10.4975 56.3955 11.2602 57.7607 11.2602C58.3636 11.2602 58.9148 11.1513 59.423 10.9333C59.4617 10.9072 59.5005 10.9203 59.5005 10.9857V12.1145C59.5005 12.193 59.4746 12.2365 59.423 12.2627C58.9148 12.5068 58.3248 12.655 57.4119 12.655C54.9744 12.655 54.1045 10.9203 54.1045 9.25097C54.1045 7.36811 55.2285 5.69881 57.2525 5.69881C59.2335 5.69881 60 7.27222 60 8.56233C60 8.94152 59.9828 9.25097 59.944 9.39916C59.9311 9.45582 59.9053 9.48197 59.8364 9.49505ZM57.1836 7.00199C56.2577 7.00199 55.8443 7.72114 55.7366 8.38363H57.7348H57.7349C58.243 8.38363 58.4153 8.38363 58.4712 8.37056V8.2616C58.4712 7.86933 58.2042 7.00199 57.1836 7.00199Z" fill="#E73D1C"/>
</svg>
